<svg version="1" xmlns="http://www.w3.org/2000/svg" width="933.333" height="933.333" viewBox="0 0 700.000000 700.000000"><path d="M0 350v350h700V0H0v350zM374.6 36c40 3.2 79.9 14.2 115.5 32 15.3 7.7 31.9 17.8 35.9 22 7.8 8 7.8 19.7.2 28.2-4.6 5.1-8.5 6.8-15.9 6.8-5.4 0-6.7-.5-16.8-6.6-46.8-28-91.1-40.5-143.5-40.5-51.7-.1-96.9 12.6-142.3 39.9-11.5 6.9-16.4 8.2-24.2 6.8-4.5-.9-11.2-6.8-13.6-12.1-3.4-7.5-1.8-16.5 4.1-22.5 4-4.2 20.6-14.3 35.9-22C260.5 42.7 318 31.6 374.6 36zm-262 133.9c5 2.3 11.2 9.3 12 13.8 1.4 7.7 0 12.7-6.8 24-20.8 34.2-33.7 71.4-38.4 110.1-1.7 14.8-2 46.5-.4 60.2 4.7 42 16.9 77.8 38.8 114.4 5.9 9.8 6.7 11.7 7 17.1.5 7.3-1.7 12.4-7.2 17.3-7.5 6.6-17.9 6.8-26.3.6-8.1-6.1-28.8-45.5-38.4-73.2-12.7-36.9-17.3-64.5-17.3-104.2 0-38.9 4.6-67.1 16.7-102.6 9.9-28.9 31-69.3 39.3-75.1 6.5-4.5 14.3-5.4 21-2.4zm489.5-.7c5.8 1.9 9 4.8 14.7 13.6 10.9 16.8 23.6 43.2 30.9 64.6 12.1 35.5 16.7 63.7 16.7 102.6 0 39.7-4.6 67.3-17.3 104.2-9.6 27.7-30.3 67.1-38.4 73.2-8.4 6.2-18.8 6-26.3-.6-5.5-4.9-7.7-10-7.2-17.3.3-5.4 1.1-7.3 7-17.1 29.5-49.1 42.5-100.7 39.6-157.2-2.2-44.9-15.7-88.4-39.4-127.3-5.2-8.5-6.8-12.1-7.2-15.9-.7-7.3.4-11.2 4.5-16 6.1-7.1 14.3-9.6 22.4-6.8zM378 195.9c47.5 8.5 88.7 39.1 111 82.2 23.6 45.7 23.6 98.1 0 143.8-22.7 43.9-64.6 74.3-114 82.8-12.7 2.2-37.3 2.2-50 0-22.5-3.9-47.3-14-65.5-26.8-11.5-8.1-29.2-25.9-37.2-37.2-34.1-48.4-38.3-110.2-11.3-162.6 24.9-48.1 70.8-78.7 126.5-84.5 8-.8 30.3.4 40.5 2.3zM206.6 581.6c33.9 20.6 66 32.1 107.4 38.6 5.6.9 18.1 1.3 37 1.3 25.2 0 30-.3 41.5-2.3 38.5-6.8 68.9-18.1 101-37.7l11-6.7 7.2.4c6.2.3 7.7.7 11 3.4 7.9 6.4 10.7 14.2 8.3 23.1-1.8 6.3-6.5 10.8-19.5 18.5-38.7 23.1-79.9 37-127 43-13 1.6-56 1.6-69 0-41-5.2-77.5-16.5-111.9-34.5-15.3-8.1-28.3-16.5-31-20-6.3-8.6-6-19 1-26.6 4.7-5.3 8.7-7.1 16-7.1 5.8 0 6.7.4 17 6.6z"/><path d="M330.2 237.5c-47.7 8.7-84.4 45.6-92.8 93.6-2.3 13.5-1.5 33.9 2 47.3 6.6 25.3 22.2 48.2 44.1 64.4 8.5 6.3 26.5 14.8 38.1 17.9 9 2.4 11.5 2.7 28.4 2.7s19.4-.3 28.4-2.7c11.6-3.1 29.6-11.6 38.1-17.9 21.9-16.2 37.5-39.1 44.1-64.4 3.5-13.4 4.3-33.8 2-47.3-8.4-48.2-45.4-85.2-93.4-93.6-10.2-1.8-29.1-1.8-39 0z"/></svg>