<svg xmlns="http://www.w3.org/2000/svg" x="0.0" y="0.0" viewBox="0 0 100 100" width="512" height="512"><rect width="100%" height="100%" fill="#263238"/><g fill="#ffeb3b"><path d="M50.001,72.392c12.347,0,22.392-10.045,22.392-22.389c0-12.35-10.045-22.395-22.392-22.395   c-12.35,0-22.395,10.045-22.395,22.395C27.606,62.347,37.652,72.392,50.001,72.392z M50.001,33.673   c9.003,0,16.327,7.327,16.327,16.33s-7.324,16.324-16.327,16.324s-16.33-7.321-16.33-16.324S40.998,33.673,50.001,33.673z"/><path d="M71.3,82.58c-12.942,8.47-29.657,8.47-42.599,0c-1.395-0.924-3.278-0.527-4.196,0.871   c-0.918,1.404-0.527,3.281,0.874,4.199C32.857,92.554,41.43,95,50.001,95s17.144-2.446,24.622-7.351   c1.401-0.918,1.792-2.796,0.874-4.199C74.582,82.053,72.701,81.656,71.3,82.58z"/><path d="M16.551,24.504c-1.392-0.918-3.278-0.527-4.196,0.871c-9.806,14.962-9.806,34.289,0,49.25   c0.58,0.888,1.549,1.368,2.538,1.368c0.569,0,1.146-0.16,1.658-0.498c1.401-0.918,1.792-2.796,0.874-4.199   c-8.479-12.936-8.479-29.657,0-42.593C18.342,27.3,17.951,25.422,16.551,24.504z"/><path d="M87.648,25.375c-0.912-1.398-2.793-1.795-4.196-0.871c-1.401,0.918-1.792,2.796-0.874,4.199   c8.476,12.936,8.476,29.657,0,42.593c-0.918,1.404-0.527,3.281,0.874,4.199c0.512,0.338,1.087,0.498,1.658,0.498   c0.989,0,1.958-0.48,2.538-1.368C97.451,59.663,97.451,40.337,87.648,25.375z"/><path d="M74.626,12.356c-14.962-9.809-34.289-9.809-49.25,0c-1.398,0.918-1.789,2.796-0.871,4.199   c0.918,1.404,2.79,1.789,4.199,0.871c12.936-8.482,29.657-8.482,42.593,0c0.515,0.338,1.09,0.498,1.661,0.498   c0.989,0,1.958-0.48,2.538-1.368C76.415,15.152,76.024,13.274,74.626,12.356z"/></g></svg>